<svg width="396" height="117" viewBox="0 0 396 117" fill="none" xmlns="http://www.w3.org/2000/svg">
<path d="M13.963 66.2858C14.5426 66.7632 15.2843 67.4025 16.1879 68.2038C17.0914 69.0051 18.1229 69.7979 19.2822 70.5821C21.0212 71.7414 22.7431 72.645 24.448 73.2929C26.1529 73.9408 27.943 74.2647 29.8184 74.2647C31.5574 74.2647 33.015 74.0686 34.1914 73.6765C35.3678 73.2844 36.2969 72.7644 36.9789 72.1165C37.6609 71.4687 38.1467 70.7185 38.4366 69.8661C38.7264 69.0136 38.8713 68.1101 38.8713 67.1553C38.8713 66.0983 38.4707 65.1521 37.6694 64.3167C36.8681 63.4813 35.8878 62.7397 34.7285 62.0918C33.5691 61.444 32.3587 60.8899 31.0971 60.4296C29.8354 59.9692 28.7443 59.5856 27.8237 59.2788C23.732 57.8467 20.1517 56.3037 17.0829 54.65C14.0141 52.9963 11.4568 51.155 9.41095 49.1262C7.36509 47.0974 5.8307 44.864 4.80777 42.426C3.78484 39.988 3.27337 37.2687 3.27337 34.2681C3.27337 31.0971 3.9127 28.2158 5.19137 25.6244C6.47003 23.033 8.29425 20.8166 10.664 18.9753C13.0338 17.1341 15.8895 15.7105 19.2311 14.7046C22.5726 13.6987 26.3063 13.1958 30.4321 13.1958C33.535 13.1958 36.5101 13.5453 39.3572 14.2443C42.2044 14.9433 45.0089 16.06 47.7708 17.5944C48.9301 18.2763 50.0298 18.9839 51.0697 19.717C52.1097 20.4501 53.0218 21.1576 53.8061 21.8395C54.5903 22.5215 55.2126 23.1694 55.6729 23.7831C56.1333 24.3969 56.3634 24.9254 56.3634 25.3687C56.3634 25.8119 56.2526 26.2211 56.031 26.5962C55.8093 26.9712 55.4769 27.3975 55.0336 27.8748L47.2082 36.2117C46.6285 36.7914 46.0489 37.0812 45.4692 37.0812C44.9918 37.0812 44.5571 36.9448 44.165 36.672C43.7729 36.3992 43.3381 36.0583 42.8607 35.6491L42.4004 35.2399C41.7185 34.6603 40.9598 34.0636 40.1244 33.4498C39.289 32.836 38.3939 32.282 37.4392 31.7875C36.4845 31.2931 35.4786 30.8839 34.4216 30.56C33.3645 30.2361 32.2905 30.0741 31.1993 30.0741C30.0741 30.0741 29.0171 30.1679 28.0283 30.3554C27.0394 30.543 26.1699 30.8413 25.4198 31.2505C24.6696 31.6597 24.0729 32.1967 23.6297 32.8616C23.1864 33.5265 22.9648 34.3363 22.9648 35.2911C22.9648 36.2458 23.2034 37.0727 23.6808 37.7717C24.1582 38.4707 24.8742 39.1185 25.829 39.7152C26.7837 40.3119 27.9686 40.8746 29.3836 41.4031C30.7987 41.9316 32.4439 42.5027 34.3193 43.1165C37.9336 44.3099 41.2667 45.563 44.3184 46.8757C47.3702 48.1885 50.0042 49.7399 52.2205 51.5301C54.4369 53.3202 56.1674 55.4598 57.4119 57.949C58.6565 60.4381 59.2788 63.4557 59.2788 67.0019C59.2788 70.7526 58.5116 74.1539 56.9772 77.2056C55.4428 80.2573 53.3372 82.8573 50.6606 85.0054C47.9839 87.1536 44.8384 88.8158 41.2241 89.9922C37.6097 91.1686 33.7226 91.7568 29.5627 91.7568C25.6414 91.7568 21.7884 91.0578 18.0036 89.6598C14.2187 88.2618 10.6896 86.3864 7.41624 84.0337C6.05233 83.0448 4.90154 82.073 3.96385 81.1183C3.02617 80.1636 2.28454 79.3964 1.73898 78.8167L1.58554 78.6633C1.55144 78.5951 1.51735 78.5525 1.48325 78.5354C1.44915 78.5184 1.41505 78.4928 1.38095 78.4587C1.34686 78.3905 1.31276 78.3479 1.27866 78.3308C1.24456 78.3138 1.21047 78.2882 1.17637 78.2541C0.392123 77.4017 0 76.7197 0 76.2082C0 75.6286 0.392123 74.9807 1.17637 74.2647L10.0247 65.8255C10.7408 65.314 11.3204 65.0583 11.7637 65.0583C12.0706 65.0583 12.3945 65.1606 12.7355 65.3652C13.0764 65.5698 13.4856 65.8767 13.963 66.2858ZM70.7356 26.4427C71.1788 26.0677 71.6392 25.829 72.1165 25.7267C72.5939 25.6244 73.0542 25.5732 73.4975 25.5732H81.2206C81.8684 25.5732 82.4055 25.6755 82.8317 25.8801C83.2579 26.0847 83.6074 26.366 83.8802 26.724C84.153 27.0821 84.3831 27.4912 84.5707 27.9515C84.7582 28.4119 84.9372 28.9148 85.1077 29.4604L87.2559 35.6491C88.2106 34.4216 89.1739 33.1685 90.1457 31.8898C91.1174 30.6112 92.2682 29.4518 93.598 28.4119C94.9278 27.3719 96.5134 26.5109 98.3547 25.829C100.196 25.147 102.446 24.806 105.106 24.806C109.777 24.806 114.082 25.667 118.02 27.3889C121.959 29.1109 125.351 31.4807 128.199 34.4983C131.046 37.5159 133.271 41.0621 134.873 45.1368C136.476 49.2114 137.277 53.6186 137.277 58.3581C137.277 63.0636 136.476 67.4622 134.873 71.5539C133.271 75.6456 131.046 79.2003 128.199 82.218C125.351 85.2356 121.959 87.6139 118.02 89.3529C114.082 91.0919 109.777 91.9614 105.106 91.9614C102.89 91.9614 100.98 91.6971 99.3776 91.1686C97.775 90.6401 96.3514 89.9496 95.1069 89.0972C93.8623 88.2447 92.7626 87.307 91.8079 86.2841C90.8532 85.2612 89.9155 84.2382 88.9949 83.2153V107.05C88.9949 108.073 88.688 108.942 88.0742 109.658C87.4605 110.374 86.5057 110.732 85.21 110.732H73.4975C73.0883 110.732 72.645 110.647 72.1677 110.476C71.6903 110.306 71.247 110.067 70.8379 109.76C70.4287 109.453 70.0877 109.07 69.8149 108.61C69.5421 108.149 69.4058 107.629 69.4058 107.05V29.3581C69.4058 28.6761 69.5336 28.1135 69.7894 27.6702C70.0451 27.227 70.3605 26.8178 70.7356 26.4427ZM118.506 58.3581C118.506 56.1759 118.148 54.1044 117.432 52.1438C116.716 50.1832 115.71 48.4698 114.415 47.0036C113.119 45.5374 111.567 44.3781 109.76 43.5257C107.953 42.6732 105.958 42.247 103.776 42.247C101.628 42.247 99.5907 42.6476 97.6642 43.4489C95.7377 44.2502 94.0498 45.3414 92.6007 46.7223C91.1515 48.1033 89.9752 49.7314 89.0716 51.6068C88.168 53.4822 87.6651 55.4769 87.5628 57.5909V58.3581C87.5628 60.6086 87.989 62.7226 88.8414 64.7003C89.6939 66.6779 90.8532 68.3914 92.3194 69.8405C93.7856 71.2897 95.5075 72.4405 97.4852 73.2929C99.4628 74.1453 101.56 74.5716 103.776 74.5716C105.958 74.5716 107.953 74.1453 109.76 73.2929C111.567 72.4405 113.119 71.2897 114.415 69.8405C115.71 68.3914 116.716 66.6779 117.432 64.7003C118.148 62.7226 118.506 60.6086 118.506 58.3581ZM147.506 10.4339C147.506 9.34276 147.779 8.42212 148.325 7.67197C148.87 6.92182 149.808 6.54675 151.138 6.54675H163.669C164.01 6.54675 164.368 6.64052 164.743 6.82805C165.118 7.01559 165.467 7.27985 165.791 7.62082C166.115 7.9618 166.388 8.37097 166.61 8.84834C166.831 9.32571 166.942 9.85422 166.942 10.4339V86.8467C166.942 88.1424 166.576 89.1227 165.842 89.7876C165.109 90.4525 164.163 90.785 163.004 90.785H151.138C149.808 90.785 148.87 90.4525 148.325 89.7876C147.779 89.1227 147.506 88.1424 147.506 86.8467V10.4339ZM179.166 29.8184C179.166 28.7273 179.473 27.7896 180.087 27.0053C180.7 26.2211 181.655 25.829 182.951 25.829H194.663C195.073 25.829 195.516 25.9227 195.993 26.1103C196.471 26.2978 196.914 26.5706 197.323 26.9286C197.732 27.2866 198.082 27.7043 198.372 28.1817C198.661 28.6591 198.806 29.2046 198.806 29.8184V86.8467C198.806 88.1424 198.448 89.1227 197.732 89.7876C197.016 90.4525 195.993 90.785 194.663 90.785H182.951C180.428 90.785 179.166 89.4722 179.166 86.8467V29.8184ZM179.166 3.93828C179.166 2.50618 179.473 1.49177 180.087 0.895063C180.7 0.298354 181.655 0 182.951 0H194.817C196.01 0 196.974 0.298354 197.707 0.895063C198.44 1.49177 198.806 2.50618 198.806 3.93828V13.9118C198.806 14.321 198.713 14.7643 198.525 15.2416C198.337 15.719 198.073 16.1793 197.732 16.6226C197.391 17.0659 196.974 17.4324 196.479 17.7223C195.985 18.0121 195.431 18.157 194.817 18.157H182.951C180.428 18.157 179.166 16.7419 179.166 13.9118V3.93828ZM215.02 15.702C215.02 14.6449 215.369 13.8522 216.068 13.3237C216.767 12.7951 217.765 12.2922 219.06 11.8148L230.671 7.77426C230.841 7.74017 231.003 7.72312 231.156 7.72312H231.591C232.853 7.72312 233.697 8.08967 234.123 8.82277C234.549 9.55587 234.762 10.5191 234.762 11.7125L234.711 27.8237H243.253C244.344 27.8237 245.23 28.1476 245.912 28.7955C246.594 29.4433 246.935 30.4151 246.935 31.7108V41.5821C246.935 43.0142 246.594 44.0627 245.912 44.7276C245.23 45.3925 244.344 45.7249 243.253 45.7249H234.711L234.762 86.8467C234.762 88.1424 234.387 89.1227 233.637 89.7876C232.887 90.4525 231.847 90.785 230.517 90.785H218.958C216.333 90.785 215.02 89.4722 215.02 86.8467L214.969 45.7249H211.235C208.609 45.7249 207.297 44.344 207.297 41.5821V31.7108C207.297 29.1194 208.609 27.8237 211.235 27.8237H214.969L215.02 15.702ZM254.965 29.8184C254.965 28.7273 255.272 27.7896 255.886 27.0053C256.5 26.2211 257.454 25.829 258.75 25.829H270.463C270.872 25.829 271.315 25.9227 271.792 26.1103C272.27 26.2978 272.713 26.5706 273.122 26.9286C273.531 27.2866 273.881 27.7043 274.171 28.1817C274.46 28.6591 274.605 29.2046 274.605 29.8184V86.8467C274.605 88.1424 274.247 89.1227 273.531 89.7876C272.815 90.4525 271.792 90.785 270.463 90.785H258.75C256.227 90.785 254.965 89.4722 254.965 86.8467V29.8184ZM254.965 3.93828C254.965 2.50618 255.272 1.49177 255.886 0.895063C256.5 0.298354 257.454 0 258.75 0H270.616C271.809 0 272.773 0.298354 273.506 0.895063C274.239 1.49177 274.605 2.50618 274.605 3.93828V13.9118C274.605 14.321 274.512 14.7643 274.324 15.2416C274.137 15.719 273.872 16.1793 273.531 16.6226C273.19 17.0659 272.773 17.4324 272.278 17.7223C271.784 18.0121 271.23 18.157 270.616 18.157H258.75C256.227 18.157 254.965 16.7419 254.965 13.9118V3.93828ZM293.069 26.7496C293.069 23.5785 293.751 20.595 295.115 17.799C296.479 15.003 298.303 12.5565 300.588 10.4595C302.872 8.36245 305.498 6.70871 308.464 5.49825C311.431 4.28778 314.534 3.68255 317.773 3.68255H318.796C319.955 3.68255 320.85 4.03205 321.481 4.73105C322.112 5.43005 322.427 6.39331 322.427 7.62082V17.3898C322.427 18.6514 322.095 19.6999 321.43 20.5353C320.765 21.3707 319.887 21.7884 318.796 21.7884H317.773C317.057 21.7884 316.375 21.9163 315.727 22.172C315.079 22.4277 314.5 22.7772 313.988 23.2205C313.477 23.6638 313.068 24.1838 312.761 24.7805C312.454 25.3772 312.3 26.0336 312.3 26.7496V32.6315H320.33C321.49 32.6315 322.385 32.9468 323.016 33.5777C323.646 34.2085 323.962 35.2058 323.962 36.5697V45.9295C323.962 47.3957 323.646 48.4698 323.016 49.1518C322.385 49.8337 321.49 50.1747 320.33 50.1747H312.3V86.8467C312.3 88.1424 311.866 89.1227 310.996 89.7876C310.127 90.4525 309.18 90.785 308.157 90.785H297.11C295.882 90.785 294.902 90.4014 294.169 89.6342C293.436 88.867 293.069 87.9378 293.069 86.8467V50.1747H287.801C286.608 50.1747 285.645 49.8337 284.911 49.1518C284.178 48.4698 283.812 47.3957 283.812 45.9295V36.5697C283.812 35.2058 284.178 34.2085 284.911 33.5777C285.645 32.9468 286.608 32.6315 287.801 32.6315H293.069V26.7496ZM327.286 30.739C326.741 29.3751 326.732 28.2073 327.261 27.2355C327.789 26.2637 328.957 25.7778 330.764 25.7778H343.397C344.25 25.7778 344.949 26.0421 345.494 26.5706C346.04 27.0991 346.449 27.7555 346.722 28.5397L361.196 69.7126L375.364 28.5397C375.739 27.4486 376.216 26.7155 376.796 26.3404C377.376 25.9654 378.177 25.7778 379.2 25.7778H392.345C393.299 25.7778 394.049 25.9057 394.595 26.1614C395.141 26.4172 395.524 26.7581 395.746 27.1844C395.967 27.6106 396.044 28.0879 395.976 28.6165C395.908 29.145 395.771 29.665 395.567 30.1764C394.271 33.3816 392.856 36.8851 391.322 40.687C389.787 44.4889 388.193 48.4442 386.539 52.553C384.886 56.6618 383.206 60.8387 381.501 65.0839C379.797 69.329 378.134 73.4975 376.515 77.5892C374.895 81.6809 373.335 85.6107 371.835 89.3785C370.335 93.1463 368.962 96.6072 367.718 99.7612C366.473 102.915 365.39 105.686 364.47 108.072C363.549 110.459 362.85 112.301 362.373 113.596L362.526 113.341C362.287 114.261 361.861 115.003 361.247 115.565C360.634 116.128 359.884 116.409 358.997 116.409H347.182C345.648 116.409 344.599 116.111 344.037 115.514C343.474 114.918 343.193 114.04 343.193 112.88C343.193 112.437 343.253 112.096 343.372 111.857C343.491 111.619 343.585 111.465 343.653 111.397L351.683 90.5293L327.286 30.739Z" fill="#EAFFF7"/>
</svg>
